<?xml version="1.0" standalone="no"?>
<!DOCTYPE svg PUBLIC "-//W3C//DTD SVG 20010904//EN"
 "http://www.w3.org/TR/2001/REC-SVG-20010904/DTD/svg10.dtd">
<svg version="1.0" xmlns="http://www.w3.org/2000/svg"
 width="700.000000pt" height="700.000000pt" viewBox="0 0 700.000000 700.000000"
 preserveAspectRatio="xMidYMid meet">
<metadata>
Created by potrace 1.11, written by Peter Selinger 2001-2013
</metadata>
<g transform="translate(0.000000,700.000000) scale(0.100000,-0.100000)"
fill="#000000" stroke="none">
<path d="M3270 6994 c-19 -2 -87 -9 -150 -15 -649 -61 -1290 -325 -1825 -753
-129 -102 -419 -392 -521 -521 -383 -480 -632 -1035 -728 -1625 -46 -285 -56
-701 -23 -965 75 -593 279 -1124 614 -1602 494 -705 1243 -1205 2088 -1393
280 -62 399 -74 750 -75 210 0 353 4 415 13 565 78 1030 246 1485 537 336 215
697 561 941 900 252 350 446 775 547 1195 78 323 92 453 92 835 -1 351 -13
470 -75 750 -277 1243 -1213 2237 -2440 2590 -297 86 -567 124 -900 130 -129
2 -251 1 -270 -1z m565 -728 c538 -74 1022 -285 1420 -619 511 -430 843 -1006
959 -1667 37 -204 47 -515 25 -736 -92 -936 -661 -1768 -1498 -2193 -407 -206
-803 -301 -1262 -301 -311 0 -562 39 -848 132 -412 133 -760 343 -1070 643
-319 309 -544 656 -689 1065 -113 314 -157 582 -156 940 1 254 18 407 69 626
258 1091 1161 1926 2267 2099 59 9 147 20 195 25 123 12 457 4 588 -14z"/>
<path d="M3205 5451 c-651 -100 -1184 -489 -1480 -1080 -199 -399 -248 -904
-130 -1353 145 -552 540 -1025 1057 -1267 473 -221 1009 -245 1501 -67 265 96
498 246 708 455 249 249 416 536 504 864 l24 87 -464 0 -463 0 -40 -72 c-141
-257 -371 -444 -643 -522 -252 -72 -512 -52 -746 59 -121 57 -192 105 -280
189 -218 206 -332 471 -333 772 -1 466 291 867 741 1017 130 44 344 60 489 36
315 -50 606 -252 755 -522 l37 -67 469 0 469 0 -6 28 c-34 141 -136 383 -220
520 -305 493 -786 819 -1359 918 -143 25 -444 27 -590 5z"/>
</g>
</svg>
